<?xml version="1.0" encoding="iso-8859-1"?>
<!-- Generator: Adobe Illustrator 19.0.0, SVG Export Plug-In . SVG Version: 6.00 Build 0)  -->
<svg version="1.1" id="Capa_1" xmlns="http://www.w3.org/2000/svg" xmlns:xlink="http://www.w3.org/1999/xlink" x="0px" y="0px"
	 viewBox="0 0 512 512" style="enable-background:new 0 0 512 512;" xml:space="preserve">
<circle style="fill:#00E7F1;" cx="256" cy="256" r="256"/>
<path style="fill:#00B7BE;" d="M505.882,311.803L288.733,94.143c-2.863-3.126-6.969-5.094-11.533-5.094h-7.733L264.399,81H155.392
	v40.529c0,7.637,3.209,14.558,8.344,19.486l15.865,15.812h-37.167c-2.98,0-5.419,2.438-5.419,5.419v1.835
	c0,1.519,0.634,2.896,1.651,3.88l13.992,13.97c-0.413,0.043-0.652,0.068-0.652,0.068H83.171c-11.956,0-21.649,9.692-21.649,21.649
	v144.008h-3.493c-3.094,0-5.625,2.531-5.625,5.625v12.852c0,1.665,0.733,3.167,1.893,4.198l133.781,132.541
	C209.71,508.812,232.481,512,256,512C378.217,512,480.414,426.35,505.882,311.803z"/>
<rect x="155.31" y="163" style="fill:#3C3B41;" width="14.801" height="21.333"/>
<rect x="249.71" y="163" style="fill:#2A2A2C;" width="14.801" height="21.333"/>
<path style="fill:#C06200;" d="M451.814,310.884l-22.804-25.835l-29.46-10.419l-45.867-80.871
	c-3.708-7.22-11.142-11.759-19.258-11.759H83.171c-11.956,0-21.649,9.692-21.649,21.649v161.129h390.292V310.884z"/>
<path style="fill:#703700;" d="M451.809,310.884l0.001,53.896h-241.9V182h124.52c0.36,0,0.72,0.01,1.06,0.03
	c0.06-0.01,0.11,0,0.16,0c0.1,0.01,0.21,0.01,0.31,0.02c0.24,0.02,0.49,0.04,0.73,0.07c0.23,0.02,0.47,0.05,0.7,0.09
	c0.02-0.01,0.05,0,0.07,0.01c0.24,0.03,0.47,0.07,0.71,0.11s0.49,0.09,0.73,0.14c0.21,0.04,0.42,0.09,0.63,0.14
	c0.12,0.03,0.24,0.06,0.36,0.09c0.21,0.06,0.43,0.11,0.64,0.18c0,0,0.01,0,0.02,0.01c0.4,0.11,0.8,0.24,1.19,0.38
	c0.23,0.09,0.46,0.17,0.69,0.27c2.08,0.82,4.02,1.97,5.75,3.39c0.16,0.14,0.32,0.27,0.48,0.41c0.22,0.18,0.43,0.38,0.64,0.58
	c0.14,0.14,0.29,0.27,0.43,0.42c0.19,0.18,0.37,0.37,0.54,0.57c0.12,0.12,0.23,0.24,0.34,0.36c0.21,0.23,0.41,0.47,0.61,0.72
	c0.02,0.01,0.03,0.03,0.03,0.04c0.12,0.14,0.23,0.28,0.33,0.42c0.19,0.23,0.37,0.48,0.54,0.73c0.11,0.15,0.21,0.31,0.31,0.46
	c0.19,0.26,0.36,0.53,0.51,0.8c0.09,0.14,0.18,0.29,0.26,0.44c0.09,0.14,0.18,0.29,0.24,0.44c0.09,0.14,0.16,0.29,0.24,0.44
	l5.93,10.46h0.01l39.93,70.41l29.46,10.419L451.809,310.884z"/>
<rect x="287.62" y="199.91" style="fill:#9A4C00;" width="7.206" height="164.86"/>
<rect x="61.52" y="316.83" style="fill:#FFDBA9;" width="390.29" height="47.944"/>
<rect x="209.83" y="316.83" style="fill:#FFB74F;" width="241.98" height="47.944"/>
<circle style="fill:#3C3B41;" cx="146.53" cy="364.78" r="41.22"/>
<circle style="fill:#FFFFFF;" cx="146.53" cy="364.78" r="24.906"/>
<circle style="fill:#2A2A2C;" cx="361.66" cy="364.78" r="41.22"/>
<circle style="fill:#E1E1E3;" cx="361.66" cy="364.78" r="24.906"/>
<path style="fill:#FFDBA9;" d="M359.623,204.219H61.525v-0.567c0-11.962,9.694-21.656,21.646-21.656h251.251
	c0.413,0,0.826,0.01,1.23,0.029c7.638,0.442,14.517,4.881,18.034,11.731L359.623,204.219z"/>
<path style="fill:#FFB74F;" d="M359.62,204.22H209.91V182h124.52c0.36,0,0.72,0.01,1.06,0.03c0.06-0.01,0.11,0,0.16,0
	c0.1,0.01,0.21,0.01,0.31,0.02c0.24,0.02,0.49,0.04,0.73,0.07c0.23,0.02,0.47,0.05,0.7,0.09c0.02-0.01,0.05,0,0.07,0.01
	c0.24,0.03,0.47,0.07,0.71,0.11s0.49,0.09,0.73,0.14c0.21,0.04,0.42,0.09,0.63,0.14c0.12,0.03,0.24,0.06,0.36,0.09
	c0.21,0.06,0.43,0.11,0.64,0.18c0,0,0.01,0,0.02,0.01c0.4,0.11,0.8,0.24,1.19,0.38c0.23,0.09,0.46,0.17,0.69,0.27
	c2.08,0.82,4.02,1.97,5.75,3.39c0.16,0.14,0.32,0.27,0.48,0.41c0.22,0.18,0.43,0.38,0.64,0.58c0.14,0.14,0.29,0.27,0.43,0.42
	c0.19,0.18,0.37,0.37,0.54,0.57c0.12,0.12,0.23,0.24,0.34,0.36c0.21,0.23,0.41,0.47,0.61,0.72c0.02,0.01,0.03,0.03,0.03,0.04
	c0.12,0.14,0.23,0.28,0.33,0.42c0.19,0.23,0.37,0.48,0.54,0.73c0.11,0.15,0.21,0.31,0.31,0.46c0.19,0.26,0.36,0.53,0.51,0.8
	c0.09,0.14,0.18,0.29,0.26,0.44c0.09,0.14,0.18,0.29,0.24,0.44c0.1,0.15,0.17,0.29,0.25,0.44L359.62,204.22z"/>
<path style="fill:#703700;" d="M453.971,371.758h-24.156c-3.094,0-5.625-2.531-5.625-5.625v-12.852c0-3.094,2.531-5.625,5.625-5.625
	h24.156c3.094,0,5.625,2.531,5.625,5.625v12.852C459.596,369.227,457.064,371.758,453.971,371.758z"/>
<path style="fill:#C06200;" d="M82.185,371.758H58.029c-3.094,0-5.625-2.531-5.625-5.625v-12.852c0-3.094,2.531-5.625,5.625-5.625
	h24.156c3.094,0,5.625,2.531,5.625,5.625v12.852C87.81,369.227,85.279,371.758,82.185,371.758z"/>
<rect x="95.3" y="217.21" style="fill:#FFFFFF;" width="160.46" height="77.62"/>
<rect x="209.91" y="217.21" style="fill:#E1E1E3;" width="45.84" height="77.62"/>
<g>
	<rect x="104.73" y="238.32" style="fill:#49BBEE;" width="66.15" height="49.51"/>
	<rect x="180.17" y="238.32" style="fill:#49BBEE;" width="66.15" height="49.51"/>
</g>
<rect x="209.91" y="238.32" style="fill:#009AE5;" width="36.42" height="49.52"/>
<polygon style="fill:#E1E1E3;" points="451.809,293.109 451.809,310.884 429.01,310.884 429.01,285.049 "/>
<polygon style="fill:#2A2A2C;" points="315.322,275.976 384.338,275.976 349.514,213.166 315.322,213.166 "/>
<rect x="315.32" y="285.05" style="fill:#E1E1E3;" width="21.433" height="10.703"/>
<rect x="287.62" y="316.83" style="fill:#FF9A00;" width="7.206" height="47.944"/>
<path style="fill:#008C49;" d="M255.75,237.428c0,8.9-7.215,16.115-16.115,16.115c-8.336,0-15.192-6.33-16.028-14.444
	c-0.836,8.115-7.692,14.444-16.028,14.444s-15.192-6.329-16.028-14.444c-0.836,8.115-7.692,14.444-16.028,14.444
	s-15.192-6.329-16.028-14.444c-0.836,8.115-7.692,14.444-16.028,14.444s-15.192-6.329-16.028-14.444
	c-0.836,8.115-7.692,14.444-16.028,14.444c-8.9,0-16.115-7.215-16.115-16.115v-7.053H255.75V237.428z"/>
<path style="fill:#007539;" d="M255.75,230.38v7.05c0,8.9-7.21,16.11-16.11,16.11c-8.34,0-15.2-6.33-16.03-14.44
	c-0.76,7.34-6.45,13.22-13.7,14.27v-22.99H255.75z"/>
<rect x="95.3" y="216.08" style="fill:#00BB64;" width="160.45" height="17.04"/>
<rect x="209.91" y="216.08" style="fill:#00A753;" width="45.84" height="17.04"/>
<rect x="181.66" y="148.05" style="fill:#D9D9DB;" width="56.47" height="9.201"/>
<rect x="209.9" y="148.05" style="fill:#AEADB3;" width="28.23" height="9.199"/>
<path style="fill:#C06200;" d="M277.357,169.5H142.434c-2.98,0-5.419-2.439-5.419-5.419v-1.835c0-2.98,2.438-5.419,5.419-5.419
	h134.923c2.98,0,5.419,2.438,5.419,5.419v1.835C282.776,167.061,280.338,169.5,277.357,169.5z"/>
<path style="fill:#703700;" d="M282.775,161.693v2.943c0,2.673-2.187,4.864-4.864,4.864h-68.015v-12.672h68.015
	C280.588,156.828,282.775,159.016,282.775,161.693z"/>
<path style="fill:#FFFFFF;" d="M277.201,89.049H264.4V81H155.392v40.529c0,14.88,12.174,27.054,27.054,27.054h54.9
	c12.426,0,22.959-8.493,26.097-19.958h13.758c8.642,0,15.673-7.031,15.673-15.673v-8.23
	C292.873,96.08,285.842,89.049,277.201,89.049z M285.037,112.952c0,4.321-3.515,7.836-7.836,7.836H264.4V96.885h12.801
	c4.321,0,7.836,3.515,7.836,7.836V112.952z"/>
<path style="fill:#FFF5CB;" d="M277.201,89.049H264.4V81h-54.504v67.583h27.45c12.426,0,22.959-8.493,26.097-19.958h13.758
	c8.642,0,15.673-7.031,15.673-15.673v-8.23C292.873,96.08,285.842,89.049,277.201,89.049z M285.037,112.952
	c0,4.321-3.515,7.836-7.836,7.836H264.4V96.885h12.801c4.321,0,7.836,3.515,7.836,7.836V112.952z"/>
<g>
</g>
<g>
</g>
<g>
</g>
<g>
</g>
<g>
</g>
<g>
</g>
<g>
</g>
<g>
</g>
<g>
</g>
<g>
</g>
<g>
</g>
<g>
</g>
<g>
</g>
<g>
</g>
<g>
</g>
</svg>
