<?xml version="1.0" encoding="iso-8859-1"?>
<!-- Generator: Adobe Illustrator 19.0.0, SVG Export Plug-In . SVG Version: 6.00 Build 0)  -->
<svg version="1.1" id="Capa_1" xmlns="http://www.w3.org/2000/svg" xmlns:xlink="http://www.w3.org/1999/xlink" x="0px" y="0px"
	 viewBox="0 0 512 512" style="enable-background:new 0 0 512 512;" xml:space="preserve">
<circle style="fill:#FFE047;" cx="256" cy="256" r="256"/>
<path style="fill:#FEC000;" d="M508.781,296.593c0.001-0.003,0.001-0.007,0.002-0.01c1.478-9.285,2.466-18.733,2.918-28.323
	L317.021,73.579c-15.943-17.706-41.632-24.907-65.352-16.163c-28.459,10.491-44.186,40.28-37.858,69.093l-82.705,30.487
	l5.718,15.511l9.492,9.492H83.171c-11.956,0-21.649,9.693-21.649,21.649v144.008h-3.493c-3.094,0-5.625,2.531-5.625,5.625v12.852
	c0,1.665,0.733,3.167,1.893,4.198l133.781,132.542l0,0c4.008,1.1,8.056,2.105,12.139,3.014c0.188,0.042,0.377,0.082,0.566,0.123
	c2.323,0.512,4.659,0.989,7.004,1.437c0.396,0.075,0.792,0.154,1.189,0.227c1.136,0.211,2.275,0.414,3.417,0.61
	c0.65,0.112,1.303,0.217,1.955,0.324c1.637,0.269,3.279,0.521,4.927,0.758c0.923,0.133,1.846,0.265,2.772,0.388
	c0.889,0.118,1.779,0.231,2.671,0.34c1.213,0.148,2.429,0.286,3.647,0.417c0.872,0.094,1.745,0.185,2.62,0.27
	c1.437,0.139,2.877,0.268,4.321,0.384c0.657,0.053,1.314,0.103,1.972,0.15c1.701,0.123,3.404,0.235,5.113,0.324
	c0.249,0.013,0.497,0.027,0.746,0.04c1.823,0.09,3.653,0.156,5.486,0.208c0.51,0.015,1.02,0.028,1.53,0.039
	C252.097,511.97,254.045,512,256,512c55.135,0,106.192-17.438,147.975-47.089l0.006,0.006c0.309-0.219,0.61-0.449,0.918-0.669
	c1.167-0.836,2.328-1.681,3.48-2.536c0.504-0.374,1.008-0.748,1.509-1.126c1.255-0.945,2.5-1.903,3.737-2.871
	c0.308-0.241,0.621-0.477,0.928-0.72c1.512-1.194,3.008-2.407,4.492-3.634c0.423-0.35,0.841-0.706,1.261-1.059
	c1.092-0.915,2.177-1.838,3.254-2.772c0.49-0.424,0.979-0.85,1.466-1.279c1.12-0.986,2.231-1.982,3.334-2.988
	c0.346-0.315,0.696-0.626,1.04-0.943c1.414-1.303,2.813-2.622,4.198-3.956c0.361-0.348,0.716-0.702,1.075-1.052
	c1.053-1.026,2.097-2.06,3.132-3.104c0.445-0.449,0.889-0.9,1.331-1.353c1.034-1.059,2.058-2.127,3.074-3.203
	c0.334-0.355,0.673-0.705,1.006-1.062c1.324-1.419,2.632-2.852,3.924-4.301c0.271-0.304,0.535-0.612,0.805-0.917
	c1.036-1.173,2.062-2.355,3.076-3.547c0.385-0.453,0.768-0.907,1.15-1.363c0.971-1.158,1.932-2.324,2.883-3.499
	c0.295-0.364,0.594-0.726,0.887-1.092c1.236-1.544,2.457-3.101,3.658-4.674c0.149-0.196,0.295-0.395,0.444-0.592
	c1.047-1.38,2.08-2.772,3.1-4.174c0.309-0.425,0.616-0.852,0.922-1.279c0.921-1.283,1.831-2.574,2.728-3.875
	c0.242-0.35,0.487-0.698,0.727-1.05c0.246-0.36,0.482-0.728,0.727-1.089h0.029C488.687,368.927,502.805,334.118,508.781,296.593z"/>
<rect x="155.31" y="159.25" style="fill:#3C3B41;" width="14.801" height="25.08"/>
<rect x="249.71" y="163" style="fill:#2A2A2C;" width="14.801" height="21.333"/>
<path style="fill:#FF52A1;" d="M451.814,310.884l-22.804-25.835l-29.46-10.419l-45.867-80.871
	c-3.708-7.22-11.142-11.759-19.258-11.759H83.171c-11.956,0-21.649,9.692-21.649,21.649v161.129h390.292V310.884z"/>
<path style="fill:#FF328E;" d="M451.809,310.884l0.001,53.896h-241.9V182h124.52c0.36,0,0.72,0.01,1.06,0.03
	c0.06-0.01,0.11,0,0.16,0c0.1,0.01,0.21,0.01,0.31,0.02c0.24,0.02,0.49,0.04,0.73,0.07c0.23,0.02,0.47,0.05,0.7,0.09
	c0.02-0.01,0.05,0,0.07,0.01c0.24,0.03,0.47,0.07,0.71,0.11s0.49,0.09,0.73,0.14c0.21,0.04,0.42,0.09,0.63,0.14
	c0.12,0.03,0.24,0.06,0.36,0.09c0.21,0.06,0.43,0.11,0.64,0.18c0,0,0.01,0,0.02,0.01c0.4,0.11,0.8,0.24,1.19,0.38
	c0.23,0.09,0.46,0.17,0.69,0.27c2.08,0.82,4.02,1.97,5.75,3.39c0.16,0.14,0.32,0.27,0.48,0.41c0.22,0.18,0.43,0.38,0.64,0.58
	c0.14,0.14,0.29,0.27,0.43,0.42c0.19,0.18,0.37,0.37,0.54,0.57c0.12,0.12,0.23,0.24,0.34,0.36c0.21,0.23,0.41,0.47,0.61,0.72
	c0.02,0.01,0.03,0.03,0.03,0.04c0.12,0.14,0.23,0.28,0.33,0.42c0.19,0.23,0.37,0.48,0.54,0.73c0.11,0.15,0.21,0.31,0.31,0.46
	c0.19,0.26,0.36,0.53,0.51,0.8c0.09,0.14,0.18,0.29,0.26,0.44c0.09,0.14,0.18,0.29,0.24,0.44c0.09,0.14,0.16,0.29,0.24,0.44
	l5.93,10.46h0.01l39.93,70.41l29.46,10.419L451.809,310.884z"/>
<rect x="287.62" y="199.91" style="fill:#C50A5B;" width="7.206" height="164.86"/>
<path style="fill:#00E7F1;" d="M451.81,322.632v42.148H61.52v-42.148c12.02,0.18,22.39,7.15,27.46,17.24
	c5.14-10.23,15.72-17.25,27.95-17.25c12.22,0,22.81,7.02,27.95,17.25c5.14-10.23,15.72-17.25,27.94-17.25
	c12.23,0,22.81,7.02,27.95,17.25c5.14-10.23,15.72-17.25,27.95-17.25s22.81,7.02,27.95,17.25c5.14-10.23,15.72-17.25,27.95-17.25
	c12.22,0,22.8,7.02,27.94,17.25c5.14-10.23,15.73-17.25,27.95-17.25c12.23,0,22.81,7.02,27.95,17.25
	c5.14-10.23,15.72-17.25,27.95-17.25s22.81,7.02,27.95,17.25C429.43,329.782,439.8,322.812,451.81,322.632z"/>
<path style="fill:#00B7BE;" d="M424.36,339.872c-5.14-10.23-15.72-17.25-27.95-17.25s-22.81,7.02-27.95,17.25
	c-5.14-10.23-15.72-17.25-27.95-17.25c-12.22,0-22.81,7.02-27.95,17.25c-5.14-10.23-15.72-17.25-27.94-17.25
	c-12.23,0-22.81,7.02-27.95,17.25c-5.14-10.23-15.72-17.25-27.95-17.25c-7.068,0-13.576,2.355-18.81,6.309v35.85h241.9
	l-0.001-42.148C439.8,322.812,429.43,329.782,424.36,339.872z"/>
<path style="fill:#00777B;" d="M294.826,364.777v-40.432c-2.293-0.793-4.706-1.325-7.206-1.564v41.996H294.826z"/>
<path style="fill:#FF127F;" d="M359.623,204.219H61.525v-0.567c0-11.962,9.694-21.656,21.646-21.656h251.251
	c0.413,0,0.826,0.01,1.23,0.029c7.638,0.442,14.517,4.881,18.034,11.731L359.623,204.219z"/>
<path style="fill:#C50A5B;" d="M359.62,204.22H209.91V182h124.52c0.36,0,0.72,0.01,1.06,0.03c0.06-0.01,0.11,0,0.16,0
	c0.1,0.01,0.21,0.01,0.31,0.02c0.24,0.02,0.49,0.04,0.73,0.07c0.23,0.02,0.47,0.05,0.7,0.09c0.02-0.01,0.05,0,0.07,0.01
	c0.24,0.03,0.47,0.07,0.71,0.11s0.49,0.09,0.73,0.14c0.21,0.04,0.42,0.09,0.63,0.14c0.12,0.03,0.24,0.06,0.36,0.09
	c0.21,0.06,0.43,0.11,0.64,0.18c0,0,0.01,0,0.02,0.01c0.4,0.11,0.8,0.24,1.19,0.38c0.23,0.09,0.46,0.17,0.69,0.27
	c2.08,0.82,4.02,1.97,5.75,3.39c0.16,0.14,0.32,0.27,0.48,0.41c0.22,0.18,0.43,0.38,0.64,0.58c0.14,0.14,0.29,0.27,0.43,0.42
	c0.19,0.18,0.37,0.37,0.54,0.57c0.12,0.12,0.23,0.24,0.34,0.36c0.21,0.23,0.41,0.47,0.61,0.72c0.02,0.01,0.03,0.03,0.03,0.04
	c0.12,0.14,0.23,0.28,0.33,0.42c0.19,0.23,0.37,0.48,0.54,0.73c0.11,0.15,0.21,0.31,0.31,0.46c0.19,0.26,0.36,0.53,0.51,0.8
	c0.09,0.14,0.18,0.29,0.26,0.44c0.09,0.14,0.18,0.29,0.24,0.44c0.1,0.15,0.17,0.29,0.25,0.44L359.62,204.22z"/>
<circle style="fill:#3C3B41;" cx="146.53" cy="364.78" r="41.22"/>
<circle style="fill:#FFFFFF;" cx="146.53" cy="364.78" r="24.906"/>
<circle style="fill:#2A2A2C;" cx="361.66" cy="364.78" r="41.22"/>
<circle style="fill:#E1E1E3;" cx="361.66" cy="364.78" r="24.906"/>
<path style="fill:#2A2A2C;" d="M453.971,371.758h-24.156c-3.094,0-5.625-2.531-5.625-5.625v-12.852c0-3.094,2.531-5.625,5.625-5.625
	h24.156c3.094,0,5.625,2.531,5.625,5.625v12.852C459.596,369.227,457.065,371.758,453.971,371.758z"/>
<path style="fill:#3C3B41;" d="M82.185,371.758H58.029c-3.094,0-5.625-2.531-5.625-5.625v-12.852c0-3.094,2.531-5.625,5.625-5.625
	h24.156c3.094,0,5.625,2.531,5.625,5.625v12.852C87.81,369.227,85.279,371.758,82.185,371.758z"/>
<rect x="95.3" y="217.21" style="fill:#FFFFFF;" width="160.46" height="89.13"/>
<rect x="209.91" y="217.21" style="fill:#E1E1E3;" width="45.84" height="89.12"/>
<g>
	<rect x="104.73" y="238.32" style="fill:#49BAED;" width="66.15" height="61.02"/>
	<rect x="180.17" y="238.32" style="fill:#49BAED;" width="66.15" height="61.02"/>
</g>
<rect x="209.91" y="238.32" style="fill:#009AE5;" width="36.42" height="61.02"/>
<circle style="fill:#C8C6CC;" cx="155.47" cy="242.62" r="20.06"/>
<circle style="fill:#AEADB3;" cx="235.69" cy="242.62" r="20.06"/>
<rect x="135.41" y="215.58" style="fill:#FFFFFF;" width="120.34" height="27.04"/>
<rect x="209.91" y="215.58" style="fill:#E1E1E3;" width="45.84" height="27.04"/>
<circle style="fill:#00989D;" cx="115.35" cy="242.62" r="20.06"/>
<rect x="95.3" y="215.58" style="fill:#00E7F1;" width="40.11" height="27.04"/>
<circle style="fill:#00989D;" cx="195.58" cy="242.62" r="20.06"/>
<path style="fill:#00777B;" d="M215.64,242.62c0,5.46-2.18,10.42-5.73,14.03V228.6C213.46,232.21,215.64,237.16,215.64,242.62z"/>
<rect x="175.52" y="215.58" style="fill:#00E7F1;" width="40.11" height="27.04"/>
<rect x="209.91" y="215.58" style="fill:#00B7BE;" width="5.73" height="27.04"/>
<rect x="135.41" y="215.58" style="fill:#FFFFFF;" width="40.11" height="27.04"/>
<polygon style="fill:#E1E1E3;" points="451.809,293.109 451.809,310.884 429.01,310.884 429.01,285.049 "/>
<polygon style="fill:#2A2A2C;" points="315.322,275.976 384.338,275.976 349.514,213.166 315.322,213.166 "/>
<rect x="315.32" y="285.05" style="fill:#E1E1E3;" width="21.433" height="10.703"/>
<rect x="168.24" y="103.754" transform="matrix(-0.3459 -0.9383 0.9383 -0.3459 97.6705 366.2704)" style="fill:#FFFFFF;" width="16.531" height="90.672"/>
<rect x="132.606" y="148.818" transform="matrix(-0.9383 0.3459 -0.3459 -0.9383 397.8036 234.9074)" style="fill:#E1E1E3;" width="90.672" height="8.26"/>
<circle style="fill:#FF52A1;" cx="272.42" cy="113.71" r="60"/>
<path style="fill:#FF328E;" d="M272.695,173.713c-0.361,0.001-0.721,0.002-1.082-0.004c-0.844-0.011-1.687-0.034-2.527-0.081
	c-1.185-0.064-2.362-0.163-3.534-0.307c-0.391-0.048-0.781-0.096-1.163-0.147c-0.394-0.057-0.788-0.114-1.173-0.175
	c-0.769-0.121-1.542-0.252-2.313-0.405c-0.77-0.153-1.535-0.319-2.293-0.497c-0.759-0.179-1.515-0.38-2.271-0.58
	c-1.497-0.418-2.983-0.893-4.452-1.439c-1.462-0.527-2.905-1.114-4.317-1.766c-1.035-0.47-2.051-0.979-3.057-1.507
	c-0.057-0.03-0.114-0.06-0.172-0.091c-10.312-5.448-19.068-13.895-24.826-24.692c-1.29-2.402-2.423-4.926-3.392-7.553
	l112.594-41.505c11.459,31.085-4.45,65.587-35.544,77.049c-5.192,1.914-10.482,3.05-15.746,3.491c0.001,0,0.001,0,0.001,0
	c-0.084,0.007-0.168,0.01-0.252,0.017c-1.011,0.08-2.021,0.135-3.029,0.163C273.663,173.7,273.179,173.711,272.695,173.713z"/>
<path style="fill:#00E7F1;" d="M277.43,173.502c-18.805-2.893-35.54-15.631-42.574-34.712c-8.072-21.898,3.176-46.28,25.074-54.352
	c17.053-6.286,36.04,2.473,42.326,19.526c4.857,13.177-1.911,27.848-15.087,32.705c-10.07,3.712-20.084-0.932-23.811-11.044
	c-1.643-4.456-1.48-9.398,0.436-13.219c1.545-3.084,4.15-5.244,7.532-6.248c2.935-0.871,5.795-0.671,8.053,0.564
	c1.937,1.059,3.299,2.79,3.941,5.007c0.474,1.638,0.06,3.83-1.006,5.332c-0.828,1.166-1.936,1.795-3.294,1.869l0.492,8.986
	c4.115-0.225,7.717-2.23,10.142-5.646c2.666-3.757,3.552-8.755,2.312-13.043c-1.303-4.506-4.239-8.2-8.269-10.403
	c-4.377-2.394-9.68-2.854-14.931-1.296c-5.828,1.729-10.33,5.479-13.018,10.843c-3.009,6.004-3.321,13.618-0.834,20.365
	c5.442,14.762,20.647,21.802,35.368,16.375c17.833-6.574,26.993-26.43,20.419-44.263c-8.003-21.709-32.175-32.86-53.883-24.858
	c-26.555,9.789-40.194,39.356-30.406,65.91c3.324,9.018,8.513,16.817,14.96,23.136C252.049,171.489,264.653,174.579,277.43,173.502z
	"/>
<g>
	<path style="fill:#00B7BE;" d="M277.429,173.506c-2.789,0.24-5.578,0.277-8.342,0.123c-1.176-0.067-2.356-0.176-3.534-0.307
		c-0.391-0.048-0.781-0.096-1.163-0.147c-0.394-0.057-0.788-0.114-1.173-0.175c-0.769-0.121-1.542-0.252-2.313-0.405
		c-0.77-0.153-1.535-0.319-2.293-0.497c-0.759-0.179-1.515-0.38-2.271-0.58c-1.5-0.427-2.986-0.903-4.452-1.439
		c-1.462-0.527-2.899-1.127-4.317-1.766c-2.128-0.974-4.194-2.067-6.197-3.279c-6.454-6.318-11.641-14.115-14.964-23.132
		c-1.249-3.387-2.119-6.818-2.619-10.257l8.67-3.196c0.349,3.463,1.139,6.934,2.394,10.34
		C241.889,157.874,258.627,170.61,277.429,173.506z"/>
	<path style="fill:#00B7BE;" d="M282.601,109.965l8.482-3.127c0.343,0.758,0.641,1.565,0.882,2.393
		c1.239,4.286,0.352,9.281-2.311,13.044c-2.43,3.411-6.028,5.419-10.143,5.647l-0.492-8.995c1.358-0.074,2.471-0.698,3.298-1.866
		c1.066-1.502,1.472-3.697,0.997-5.334C283.137,111.1,282.9,110.516,282.601,109.965z"/>
	<path style="fill:#00B7BE;" d="M254.916,128.74c-0.948-2.571-1.485-5.272-1.627-7.969l9.054-3.338
		c-0.302,2.68,0.031,5.52,1.017,8.194c3.725,10.105,13.739,14.748,23.807,11.037c13.174-4.856,19.948-19.525,15.092-32.698
		c-0.135-0.366-0.279-0.728-0.423-1.091l8.454-3.116c0.135,0.366,0.279,0.728,0.414,1.094c6.572,17.827-2.596,37.684-20.424,44.256
		C275.559,150.535,260.357,143.499,254.916,128.74z"/>
</g>
<g>
</g>
<g>
</g>
<g>
</g>
<g>
</g>
<g>
</g>
<g>
</g>
<g>
</g>
<g>
</g>
<g>
</g>
<g>
</g>
<g>
</g>
<g>
</g>
<g>
</g>
<g>
</g>
<g>
</g>
</svg>
